<svg width="32" height="32" viewBox="0 0 32 32" fill="none" xmlns="http://www.w3.org/2000/svg">
<path d="M28.96 8.37334V9.93334C28.96 11.24 28.44 12.36 27.52 13.0133C26.9467 13.44 26.24 13.64 25.5067 13.64C25.0533 13.64 24.6 13.5733 24.1333 13.4133L16.96 11.0267V24C16.96 27.4933 14.12 30.3333 10.6267 30.3333C7.13334 30.3333 4.29333 27.4933 4.29333 24C4.29333 20.5067 7.13334 17.6667 10.6267 17.6667C12.3067 17.6667 13.8267 18.3333 14.96 19.4V5.33334C14.96 4.04001 15.4933 2.92001 16.4133 2.25334C17.3333 1.60001 18.56 1.45334 19.7867 1.85334L25.68 3.82667C27.4933 4.42667 28.96 6.46667 28.96 8.37334Z" fill="white"/>
</svg>
