<svg width="32" height="32" viewBox="0 0 32 32" fill="none" xmlns="http://www.w3.org/2000/svg">
<path d="M26.8 12.2933C24.3867 12.2933 23.4 10.5867 24.6 8.49333C25.2933 7.28 24.88 5.73333 23.6667 5.04L21.36 3.72C20.3067 3.09333 18.9467 3.46666 18.32 4.52L18.1733 4.77333C16.9733 6.86666 15 6.86666 13.7867 4.77333L13.64 4.52C13.04 3.46666 11.68 3.09333 10.6267 3.72L8.32 5.04C7.10667 5.73333 6.69334 7.29333 7.38667 8.50666C8.60001 10.5867 7.61334 12.2933 5.20001 12.2933C3.81334 12.2933 2.66667 13.4267 2.66667 14.8267V17.1733C2.66667 18.56 3.80001 19.7067 5.20001 19.7067C7.61334 19.7067 8.60001 21.4133 7.38667 23.5067C6.69334 24.72 7.10667 26.2667 8.32 26.96L10.6267 28.28C11.68 28.9067 13.04 28.5333 13.6667 27.48L13.8133 27.2267C15.0133 25.1333 16.9867 25.1333 18.2 27.2267L18.3467 27.48C18.9733 28.5333 20.3333 28.9067 21.3867 28.28L23.6933 26.96C24.9067 26.2667 25.32 24.7067 24.6267 23.5067C23.4133 21.4133 24.4 19.7067 26.8133 19.7067C28.2 19.7067 29.3467 18.5733 29.3467 17.1733V14.8267C29.3333 13.44 28.2 12.2933 26.8 12.2933ZM16 20.3333C13.6133 20.3333 11.6667 18.3867 11.6667 16C11.6667 13.6133 13.6133 11.6667 16 11.6667C18.3867 11.6667 20.3333 13.6133 20.3333 16C20.3333 18.3867 18.3867 20.3333 16 20.3333Z" fill="white"/>
</svg>
