<svg preserveAspectRatio="none" width="100%" height="100%" overflow="visible" style="display: block;" viewBox="0 0 131 32" fill="none" xmlns="http://www.w3.org/2000/svg">
<path id="Vector" d="M114.754 17.3122C113.82 17.2538 112.886 17.1371 111.952 17.1663C104.364 17.3414 96.8057 17.5165 89.2178 17.7208C77.7484 18.0418 66.3082 18.3628 54.8388 18.6839C40.0716 19.0924 25.3336 19.5302 10.5664 19.9096C8.05654 19.968 5.51752 19.9388 3.00768 19.8512C2.27807 19.822 1.4901 19.5886 0.848045 19.2092C0.410283 18.9757 0.0308884 18.3337 0.00170418 17.8375C-0.02748 17.3414 0.32273 16.5534 0.702125 16.4075C1.92786 15.9114 3.24115 15.4152 4.55444 15.3569C15.2358 14.8315 25.8881 14.3646 36.5695 13.9268C53.0586 13.2848 69.5768 12.7011 86.0659 12.0882C91.4941 11.8839 96.9516 11.738 102.38 11.5629C103.664 11.5045 104.948 11.3878 107.049 11.2419C105.969 10.1913 105.503 9.63676 104.977 9.22818C103.255 7.94408 101.446 6.80589 99.8116 5.46342C98.3232 4.2085 98.0606 2.60337 98.8485 1.31927C99.6949 -0.0815757 101.037 -0.139944 102.438 0.122714C102.993 0.239451 103.547 0.472925 104.102 0.677214C111.223 3.18705 118.373 5.72608 125.494 8.2651C125.873 8.38184 126.194 8.55694 126.574 8.73205C132.031 11.1835 132.381 13.1972 127.828 16.8744C124.968 19.18 121.933 21.3104 118.927 23.4409C115.6 25.8048 112.244 28.1395 108.888 30.4159C106.612 31.9627 104.773 32.0502 103.664 30.7077C102.409 29.1902 102.847 26.9722 105.036 25.1627C106.67 23.8203 108.509 22.6529 110.26 21.4564C111.836 20.3765 113.441 19.3551 115.017 18.3045C114.9 18.0126 114.841 17.6624 114.754 17.3122Z" fill="var(--fill-0, white)"/>
</svg>
