<svg width="58" height="56" viewBox="0 0 58 56" fill="none" xmlns="http://www.w3.org/2000/svg">
<path d="M52.4539 22.9894C51.8946 20.6187 52.1721 18.016 52.0267 15.4826C51.9585 14.246 51.8585 12.8833 51.2538 11.671C50.8853 10.869 50.2181 10.2426 49.3943 9.92547C48.5706 9.60836 47.6555 9.62563 46.8443 9.97359C45.6914 10.4361 44.6814 11.6782 44.1112 12.5015C43.4227 13.5149 42.7871 14.5633 42.2069 15.6424C41.0855 17.6809 40.0705 19.6819 39.0067 21.5488C38.6636 22.1156 38.3264 22.7068 37.969 23.261C37.4501 15.8577 39.9452 2.17128 31.2981 0.0853051C29.2971 -0.362079 27.7514 1.0196 26.9172 2.61067C26.052 4.29027 25.3338 6.04164 24.7707 7.84515C23.3352 12.2559 22.2022 16.7594 21.3796 21.3243C20.5386 25.981 19.9655 30.1694 18.5582 39.1776C13.933 37.1568 8.15736 35.4951 3.64989 39.7696C-4.10155 47.1208 1.33223 57.1436 12.0774 55.8935C21.0617 54.8487 24.1795 42.7533 24.1795 42.7533H24.177C25.3732 36.9415 26.2592 28.2499 27.3461 21.8036C28.0744 17.487 29.2483 13.9189 30.6203 9.78984C30.8007 9.25752 30.9912 8.69661 31.1934 8.14368C32.4187 12.6154 31.5992 22.4196 32.4052 25.8015C33.0196 30.1454 36.9493 32.4029 40.4783 29.1295C41.9853 27.6579 42.9171 25.9125 43.848 24.2201C45.1599 21.7956 46.2027 19.3228 47.4544 17.001C47.9981 20.9337 48.6738 26.4957 52.9551 25.8566C55.5199 25.0808 56.8495 22.4087 57.8506 20.2062C56.9916 20.7995 53.1737 23.7988 52.4526 22.9894" fill="#FF4199"/>
</svg>
