<svg width="32" height="32" viewBox="0 0 32 32" fill="none" xmlns="http://www.w3.org/2000/svg">
<path d="M15.3333 28C22.3289 28 28 22.3289 28 15.3333C28 8.33773 22.3289 2.66667 15.3333 2.66667C8.33773 2.66667 2.66667 8.33773 2.66667 15.3333C2.66667 22.3289 8.33773 28 15.3333 28Z" fill="white"/>
<path d="M28.4 29.3333C28.16 29.3333 27.92 29.24 27.7467 29.0667L25.2667 26.5867C24.9067 26.2267 24.9067 25.64 25.2667 25.2667C25.6267 24.9067 26.2133 24.9067 26.5867 25.2667L29.0667 27.7467C29.4267 28.1067 29.4267 28.6933 29.0667 29.0667C28.88 29.24 28.64 29.3333 28.4 29.3333Z" fill="white"/>
</svg>
