<svg preserveAspectRatio="none" width="100%" height="100%" overflow="visible" style="display: block;" viewBox="0 0 113 109" fill="none" xmlns="http://www.w3.org/2000/svg">
<path id="Path 8" d="M101.926 44.6721C100.84 40.0655 101.379 35.008 101.096 30.0853C100.964 27.6823 100.769 25.0343 99.5945 22.6787C98.8785 21.1202 97.5819 19.903 95.9812 19.2868C94.3805 18.6706 92.6024 18.7042 91.0261 19.3803C88.7858 20.2791 86.8232 22.6926 85.7153 24.2924C84.3774 26.2617 83.1423 28.2989 82.0149 30.3958C79.8358 34.3568 77.8635 38.2451 75.7963 41.8728C75.1296 42.9742 74.4744 44.123 73.7799 45.1999C72.7716 30.8141 77.62 4.21914 60.8174 0.165762C56.929 -0.703578 53.9256 1.98124 52.3045 5.07296C50.6232 8.33669 49.2277 11.7399 48.1335 15.2444C45.3441 23.8151 43.1425 32.5662 41.544 41.4365C39.9099 50.4854 38.7963 58.624 36.0616 76.1284C27.0741 72.2017 15.8511 68.9727 7.09232 77.2788C-7.96997 91.5633 2.58875 111.039 23.4684 108.61C40.9263 106.58 46.9847 83.0766 46.9847 83.0766H46.9798C49.3043 71.7834 51.0259 54.8942 53.1379 42.368C54.5531 33.9802 56.8343 27.0467 59.5003 19.0233C59.8508 17.9889 60.2209 16.8989 60.6139 15.8245C62.9948 24.5138 61.4024 43.565 62.9687 50.1365C64.1624 58.5774 71.7985 62.9641 78.656 56.6034C81.5843 53.7437 83.3949 50.3522 85.2038 47.0636C87.753 42.3525 89.7793 37.5474 92.2117 33.0356C93.2681 40.6775 94.5811 51.4854 102.9 50.2435C107.884 48.7361 110.468 43.5437 112.413 39.264C110.744 40.4169 103.325 46.2449 101.924 44.6721" fill="var(--fill-0, #FF4199)"/>
</svg>
