<svg preserveAspectRatio="none" width="100%" height="100%" overflow="visible" style="display: block;" viewBox="0 0 32 32" fill="none" xmlns="http://www.w3.org/2000/svg">
<g id="search-normal">
<path id="Vector" d="M15.3333 28C22.3289 28 28 22.3289 28 15.3333C28 8.33773 22.3289 2.66667 15.3333 2.66667C8.33773 2.66667 2.66667 8.33773 2.66667 15.3333C2.66667 22.3289 8.33773 28 15.3333 28Z" fill="var(--fill-0, white)"/>
<path id="Vector_2" d="M28.4001 29.3334C28.1601 29.3334 27.9201 29.2401 27.7467 29.0667L25.2667 26.5867C24.9067 26.2267 24.9067 25.6401 25.2667 25.2667C25.6267 24.9067 26.2134 24.9067 26.5867 25.2667L29.0667 27.7467C29.4267 28.1067 29.4267 28.6934 29.0667 29.0667C28.8801 29.2401 28.6401 29.3334 28.4001 29.3334Z" fill="var(--fill-0, white)"/>
<g id="Vector_3" opacity="0">
</g>
</g>
</svg>
