<svg preserveAspectRatio="none" width="100%" height="100%" overflow="visible" style="display: block;" viewBox="0 0 32 32" fill="none" xmlns="http://www.w3.org/2000/svg">
<g id="radio">
<g id="Vector" opacity="0">
</g>
<path id="Vector_2" d="M10.3333 2.66667V6.66667H9.33333C8.98667 6.66667 8.65333 6.68 8.33333 6.73333V2.66667C8.33333 2.12 8.78667 1.66667 9.33333 1.66667C9.88 1.66667 10.3333 2.12 10.3333 2.66667Z" fill="var(--fill-0, white)"/>
<path id="Vector_3" d="M22.6667 6.66667H9.33333C8.98667 6.66667 8.65333 6.68 8.33333 6.73333C4.89333 7.13333 2.66667 9.68 2.66667 13.3333V22.6667C2.66667 26.6667 5.33333 29.3333 9.33333 29.3333H22.6667C26.6667 29.3333 29.3333 26.6667 29.3333 22.6667V13.3333C29.3333 9.33333 26.6667 6.66667 22.6667 6.66667ZM10.5067 21.3333C8.66667 21.3333 7.17333 19.84 7.17333 18C7.17333 16.16 8.66667 14.6667 10.5067 14.6667C12.3467 14.6667 13.84 16.16 13.84 18C13.84 19.84 12.3467 21.3333 10.5067 21.3333ZM19.1733 21.6667H18.5067C17.96 21.6667 17.5067 21.2133 17.5067 20.6667C17.5067 20.12 17.96 19.6667 18.5067 19.6667H19.1733C19.72 19.6667 20.1733 20.12 20.1733 20.6667C20.1733 21.2133 19.72 21.6667 19.1733 21.6667ZM23.84 21.6667H23.1733C22.6267 21.6667 22.1733 21.2133 22.1733 20.6667C22.1733 20.12 22.6267 19.6667 23.1733 19.6667H23.84C24.3867 19.6667 24.84 20.12 24.84 20.6667C24.84 21.2133 24.3867 21.6667 23.84 21.6667ZM23.84 16.3333H18.5067C17.96 16.3333 17.5067 15.88 17.5067 15.3333C17.5067 14.7867 17.96 14.3333 18.5067 14.3333H23.84C24.3867 14.3333 24.84 14.7867 24.84 15.3333C24.84 15.88 24.3867 16.3333 23.84 16.3333Z" fill="var(--fill-0, white)"/>
</g>
</svg>
